<mxfile host="app.diagrams.net" agent="Mozilla/5.0 (X11; Linux x86_64) AppleWebKit/537.36 (KHTML, like Gecko) Chrome/136.0.0.0 Safari/537.36" version="26.2.14">
  <diagram name="Page-1" id="oCHWp6D4Kkmh6y8wQFCt">
    <mxGraphModel dx="1188" dy="633" grid="1" gridSize="10" guides="1" tooltips="1" connect="1" arrows="1" fold="1" page="1" pageScale="1" pageWidth="1100" pageHeight="850" math="0" shadow="0">
      <root>
        <mxCell id="0" />
        <mxCell id="1" parent="0" />
        <mxCell id="pH74TIP2wVxa_vkkLLg3-1" value="&lt;b&gt;sd PageScroll&lt;/b&gt;" style="shape=umlFrame;whiteSpace=wrap;html=1;pointerEvents=0;width=140;height=30;" vertex="1" parent="1">
          <mxGeometry x="1060" y="70" width="520" height="470" as="geometry" />
        </mxCell>
        <mxCell id="pH74TIP2wVxa_vkkLLg3-9" value=":User" style="shape=umlActor;verticalLabelPosition=bottom;verticalAlign=top;html=1;" vertex="1" parent="1">
          <mxGeometry x="1100" y="120" width="30" height="60" as="geometry" />
        </mxCell>
        <mxCell id="pH74TIP2wVxa_vkkLLg3-10" value="" style="rounded=0;orthogonalLoop=1;jettySize=auto;html=1;dashed=1;dashPattern=12 12;endArrow=none;startFill=0;edgeStyle=orthogonalEdgeStyle;movable=1;resizable=1;rotatable=1;deletable=1;editable=1;locked=0;connectable=1;opacity=50;" edge="1" parent="1" source="pH74TIP2wVxa_vkkLLg3-9">
          <mxGeometry relative="1" as="geometry">
            <mxPoint x="1115" y="180" as="sourcePoint" />
            <mxPoint x="1115" y="570" as="targetPoint" />
          </mxGeometry>
        </mxCell>
        <mxCell id="pH74TIP2wVxa_vkkLLg3-11" value="" style="html=1;points=[[0,0,0,0,5],[0,1,0,0,-5],[1,0,0,0,5],[1,1,0,0,-5]];perimeter=orthogonalPerimeter;outlineConnect=0;targetShapes=umlLifeline;portConstraint=eastwest;newEdgeStyle={&quot;curved&quot;:0,&quot;rounded&quot;:0};" vertex="1" parent="1">
          <mxGeometry x="1110" y="260" width="10" height="230" as="geometry" />
        </mxCell>
        <mxCell id="pH74TIP2wVxa_vkkLLg3-12" value="pageScroll()" style="html=1;verticalAlign=bottom;endArrow=block;curved=0;rounded=0;entryX=0;entryY=0;entryDx=0;entryDy=5;" edge="1" parent="1" source="pH74TIP2wVxa_vkkLLg3-11" target="pH74TIP2wVxa_vkkLLg3-25">
          <mxGeometry relative="1" as="geometry">
            <mxPoint x="1220" y="295" as="sourcePoint" />
          </mxGeometry>
        </mxCell>
        <mxCell id="pH74TIP2wVxa_vkkLLg3-13" value="increment page with new arts" style="html=1;verticalAlign=bottom;endArrow=open;dashed=1;endSize=8;curved=0;rounded=0;exitX=0;exitY=1;exitDx=0;exitDy=-5;" edge="1" parent="1" source="pH74TIP2wVxa_vkkLLg3-25" target="pH74TIP2wVxa_vkkLLg3-11">
          <mxGeometry relative="1" as="geometry">
            <mxPoint x="1220" y="365" as="targetPoint" />
          </mxGeometry>
        </mxCell>
        <mxCell id="pH74TIP2wVxa_vkkLLg3-14" value="getArts(limit, tags)" style="html=1;verticalAlign=bottom;endArrow=block;curved=0;rounded=0;entryX=0;entryY=0;entryDx=0;entryDy=5;" edge="1" parent="1" target="pH74TIP2wVxa_vkkLLg3-20">
          <mxGeometry relative="1" as="geometry">
            <mxPoint x="1300" y="325" as="sourcePoint" />
          </mxGeometry>
        </mxCell>
        <mxCell id="pH74TIP2wVxa_vkkLLg3-15" value="return array of arts" style="html=1;verticalAlign=bottom;endArrow=open;dashed=1;endSize=8;curved=0;rounded=0;exitX=0;exitY=1;exitDx=0;exitDy=-5;" edge="1" parent="1" source="pH74TIP2wVxa_vkkLLg3-20" target="pH74TIP2wVxa_vkkLLg3-25">
          <mxGeometry relative="1" as="geometry">
            <mxPoint x="1395" y="395" as="targetPoint" />
          </mxGeometry>
        </mxCell>
        <mxCell id="pH74TIP2wVxa_vkkLLg3-18" value="&amp;lt;&amp;lt;Content&amp;gt;&amp;gt;&lt;br&gt;:Art" style="html=1;whiteSpace=wrap;" vertex="1" parent="1">
          <mxGeometry x="1410" y="120" width="110" height="50" as="geometry" />
        </mxCell>
        <mxCell id="pH74TIP2wVxa_vkkLLg3-19" style="rounded=0;orthogonalLoop=1;jettySize=auto;html=1;dashed=1;dashPattern=12 12;endArrow=none;startFill=0;edgeStyle=orthogonalEdgeStyle;exitX=0.5;exitY=1;exitDx=0;exitDy=0;opacity=50;" edge="1" parent="1" source="pH74TIP2wVxa_vkkLLg3-18">
          <mxGeometry relative="1" as="geometry">
            <mxPoint x="1464.58" y="270" as="sourcePoint" />
            <mxPoint x="1465" y="560" as="targetPoint" />
          </mxGeometry>
        </mxCell>
        <mxCell id="pH74TIP2wVxa_vkkLLg3-20" value="" style="html=1;points=[[0,0,0,0,5],[0,1,0,0,-5],[1,0,0,0,5],[1,1,0,0,-5]];perimeter=orthogonalPerimeter;outlineConnect=0;targetShapes=umlLifeline;portConstraint=eastwest;newEdgeStyle={&quot;curved&quot;:0,&quot;rounded&quot;:0};" vertex="1" parent="1">
          <mxGeometry x="1460" y="320" width="10" height="80" as="geometry" />
        </mxCell>
        <mxCell id="pH74TIP2wVxa_vkkLLg3-23" value="&amp;lt;&amp;lt;Homepage&amp;gt;&amp;gt;&lt;br&gt;:PageEngine" style="html=1;whiteSpace=wrap;" vertex="1" parent="1">
          <mxGeometry x="1240" y="120" width="110" height="50" as="geometry" />
        </mxCell>
        <mxCell id="pH74TIP2wVxa_vkkLLg3-24" style="rounded=0;orthogonalLoop=1;jettySize=auto;html=1;dashed=1;dashPattern=12 12;endArrow=none;startFill=0;edgeStyle=orthogonalEdgeStyle;exitX=0.5;exitY=1;exitDx=0;exitDy=0;opacity=50;" edge="1" parent="1" source="pH74TIP2wVxa_vkkLLg3-23">
          <mxGeometry relative="1" as="geometry">
            <mxPoint x="1294.58" y="270" as="sourcePoint" />
            <mxPoint x="1295" y="570" as="targetPoint" />
          </mxGeometry>
        </mxCell>
        <mxCell id="pH74TIP2wVxa_vkkLLg3-25" value="" style="html=1;points=[[0,0,0,0,5],[0,1,0,0,-5],[1,0,0,0,5],[1,1,0,0,-5]];perimeter=orthogonalPerimeter;outlineConnect=0;targetShapes=umlLifeline;portConstraint=eastwest;newEdgeStyle={&quot;curved&quot;:0,&quot;rounded&quot;:0};" vertex="1" parent="1">
          <mxGeometry x="1290" y="290" width="10" height="180" as="geometry" />
        </mxCell>
        <mxCell id="pH74TIP2wVxa_vkkLLg3-42" value="&lt;b&gt;sd Search&lt;/b&gt;" style="shape=umlFrame;whiteSpace=wrap;html=1;pointerEvents=0;width=140;height=30;" vertex="1" parent="1">
          <mxGeometry x="1060" y="670" width="680" height="540" as="geometry" />
        </mxCell>
        <mxCell id="pH74TIP2wVxa_vkkLLg3-43" value=":User" style="shape=umlActor;verticalLabelPosition=bottom;verticalAlign=top;html=1;" vertex="1" parent="1">
          <mxGeometry x="1100" y="730" width="30" height="60" as="geometry" />
        </mxCell>
        <mxCell id="pH74TIP2wVxa_vkkLLg3-44" value="" style="rounded=0;orthogonalLoop=1;jettySize=auto;html=1;dashed=1;dashPattern=12 12;endArrow=none;startFill=0;edgeStyle=orthogonalEdgeStyle;movable=1;resizable=1;rotatable=1;deletable=1;editable=1;locked=0;connectable=1;opacity=50;" edge="1" parent="1" source="pH74TIP2wVxa_vkkLLg3-43">
          <mxGeometry relative="1" as="geometry">
            <mxPoint x="1115" y="790" as="sourcePoint" />
            <mxPoint x="1115" y="1240" as="targetPoint" />
          </mxGeometry>
        </mxCell>
        <mxCell id="pH74TIP2wVxa_vkkLLg3-45" value="" style="html=1;points=[[0,0,0,0,5],[0,1,0,0,-5],[1,0,0,0,5],[1,1,0,0,-5]];perimeter=orthogonalPerimeter;outlineConnect=0;targetShapes=umlLifeline;portConstraint=eastwest;newEdgeStyle={&quot;curved&quot;:0,&quot;rounded&quot;:0};" vertex="1" parent="1">
          <mxGeometry x="1110" y="840" width="10" height="320" as="geometry" />
        </mxCell>
        <mxCell id="pH74TIP2wVxa_vkkLLg3-52" value="&amp;lt;&amp;lt;Content&amp;gt;&amp;gt;&lt;br&gt;:Art" style="html=1;whiteSpace=wrap;" vertex="1" parent="1">
          <mxGeometry x="1550" y="730" width="110" height="50" as="geometry" />
        </mxCell>
        <mxCell id="pH74TIP2wVxa_vkkLLg3-55" value="&amp;lt;&amp;lt;Homepage&amp;gt;&amp;gt;&lt;br&gt;:SearchEngine" style="html=1;whiteSpace=wrap;" vertex="1" parent="1">
          <mxGeometry x="1240" y="730" width="110" height="50" as="geometry" />
        </mxCell>
        <mxCell id="pH74TIP2wVxa_vkkLLg3-56" style="rounded=0;orthogonalLoop=1;jettySize=auto;html=1;dashed=1;dashPattern=12 12;endArrow=none;startFill=0;edgeStyle=orthogonalEdgeStyle;exitX=0.5;exitY=1;exitDx=0;exitDy=0;opacity=50;" edge="1" parent="1" source="pH74TIP2wVxa_vkkLLg3-55">
          <mxGeometry relative="1" as="geometry">
            <mxPoint x="1294.58" y="880" as="sourcePoint" />
            <mxPoint x="1295" y="1248" as="targetPoint" />
          </mxGeometry>
        </mxCell>
        <mxCell id="pH74TIP2wVxa_vkkLLg3-58" value="&amp;lt;&amp;lt;Content&amp;gt;&amp;gt;&lt;br&gt;:Artist" style="html=1;whiteSpace=wrap;" vertex="1" parent="1">
          <mxGeometry x="1400" y="730" width="110" height="50" as="geometry" />
        </mxCell>
        <mxCell id="pH74TIP2wVxa_vkkLLg3-59" style="rounded=0;orthogonalLoop=1;jettySize=auto;html=1;dashed=1;dashPattern=12 12;endArrow=none;startFill=0;edgeStyle=orthogonalEdgeStyle;exitX=0.5;exitY=1;exitDx=0;exitDy=0;opacity=50;" edge="1" parent="1" source="pH74TIP2wVxa_vkkLLg3-58">
          <mxGeometry relative="1" as="geometry">
            <mxPoint x="1454.58" y="880" as="sourcePoint" />
            <mxPoint x="1455" y="1240" as="targetPoint" />
          </mxGeometry>
        </mxCell>
        <mxCell id="pH74TIP2wVxa_vkkLLg3-61" value="" style="html=1;points=[[0,0,0,0,5],[0,1,0,0,-5],[1,0,0,0,5],[1,1,0,0,-5]];perimeter=orthogonalPerimeter;outlineConnect=0;targetShapes=umlLifeline;portConstraint=eastwest;newEdgeStyle={&quot;curved&quot;:0,&quot;rounded&quot;:0};" vertex="1" parent="1">
          <mxGeometry x="1290" y="860" width="10" height="270" as="geometry" />
        </mxCell>
        <mxCell id="pH74TIP2wVxa_vkkLLg3-62" value="" style="html=1;points=[[0,0,0,0,5],[0,1,0,0,-5],[1,0,0,0,5],[1,1,0,0,-5]];perimeter=orthogonalPerimeter;outlineConnect=0;targetShapes=umlLifeline;portConstraint=eastwest;newEdgeStyle={&quot;curved&quot;:0,&quot;rounded&quot;:0};" vertex="1" parent="1">
          <mxGeometry x="1450" y="900" width="10" height="80" as="geometry" />
        </mxCell>
        <mxCell id="pH74TIP2wVxa_vkkLLg3-63" value="seachArtist(text)" style="html=1;verticalAlign=bottom;endArrow=block;curved=0;rounded=0;entryX=0;entryY=0;entryDx=0;entryDy=5;" edge="1" parent="1" source="pH74TIP2wVxa_vkkLLg3-61" target="pH74TIP2wVxa_vkkLLg3-62">
          <mxGeometry relative="1" as="geometry">
            <mxPoint x="1380" y="860" as="sourcePoint" />
          </mxGeometry>
        </mxCell>
        <mxCell id="pH74TIP2wVxa_vkkLLg3-64" value="return response" style="html=1;verticalAlign=bottom;endArrow=open;dashed=1;endSize=8;curved=0;rounded=0;exitX=0;exitY=1;exitDx=0;exitDy=-5;" edge="1" parent="1" source="pH74TIP2wVxa_vkkLLg3-62" target="pH74TIP2wVxa_vkkLLg3-61">
          <mxGeometry relative="1" as="geometry">
            <mxPoint x="1380" y="925" as="targetPoint" />
          </mxGeometry>
        </mxCell>
        <mxCell id="pH74TIP2wVxa_vkkLLg3-66" value="searchArt(text)" style="html=1;verticalAlign=bottom;endArrow=block;curved=0;rounded=0;entryX=0;entryY=0;entryDx=0;entryDy=5;" edge="1" parent="1" source="pH74TIP2wVxa_vkkLLg3-61" target="pH74TIP2wVxa_vkkLLg3-65">
          <mxGeometry relative="1" as="geometry">
            <mxPoint x="1520" y="955" as="sourcePoint" />
          </mxGeometry>
        </mxCell>
        <mxCell id="pH74TIP2wVxa_vkkLLg3-67" value="return response" style="html=1;verticalAlign=bottom;endArrow=open;dashed=1;endSize=8;curved=0;rounded=0;exitX=0;exitY=1;exitDx=0;exitDy=-5;" edge="1" parent="1" source="pH74TIP2wVxa_vkkLLg3-65" target="pH74TIP2wVxa_vkkLLg3-61">
          <mxGeometry relative="1" as="geometry">
            <mxPoint x="1520" y="1025" as="targetPoint" />
          </mxGeometry>
        </mxCell>
        <mxCell id="pH74TIP2wVxa_vkkLLg3-69" value="" style="rounded=0;orthogonalLoop=1;jettySize=auto;html=1;dashed=1;dashPattern=12 12;endArrow=none;startFill=0;edgeStyle=orthogonalEdgeStyle;exitX=0.5;exitY=1;exitDx=0;exitDy=0;opacity=50;" edge="1" parent="1" source="pH74TIP2wVxa_vkkLLg3-52">
          <mxGeometry relative="1" as="geometry">
            <mxPoint x="1605" y="780" as="sourcePoint" />
            <mxPoint x="1605" y="1240" as="targetPoint" />
          </mxGeometry>
        </mxCell>
        <mxCell id="pH74TIP2wVxa_vkkLLg3-65" value="" style="html=1;points=[[0,0,0,0,5],[0,1,0,0,-5],[1,0,0,0,5],[1,1,0,0,-5]];perimeter=orthogonalPerimeter;outlineConnect=0;targetShapes=umlLifeline;portConstraint=eastwest;newEdgeStyle={&quot;curved&quot;:0,&quot;rounded&quot;:0};" vertex="1" parent="1">
          <mxGeometry x="1600" y="1010" width="10" height="80" as="geometry" />
        </mxCell>
        <mxCell id="pH74TIP2wVxa_vkkLLg3-71" value="searchTerm(text)" style="html=1;verticalAlign=bottom;endArrow=block;curved=0;rounded=0;" edge="1" parent="1" target="pH74TIP2wVxa_vkkLLg3-61">
          <mxGeometry relative="1" as="geometry">
            <mxPoint x="1120" y="880" as="sourcePoint" />
            <mxPoint x="1440" y="880" as="targetPoint" />
          </mxGeometry>
        </mxCell>
        <mxCell id="pH74TIP2wVxa_vkkLLg3-72" value="show results" style="html=1;verticalAlign=bottom;endArrow=open;dashed=1;endSize=8;curved=0;rounded=0;" edge="1" parent="1">
          <mxGeometry relative="1" as="geometry">
            <mxPoint x="1120" y="1110" as="targetPoint" />
            <mxPoint x="1290" y="1110" as="sourcePoint" />
          </mxGeometry>
        </mxCell>
      </root>
    </mxGraphModel>
  </diagram>
</mxfile>
